<svg width="105" height="40" viewBox="0 0 105 40" fill="none" xmlns="http://www.w3.org/2000/svg">
<path d="M11.4779 31.5426C9.29162 31.5426 7.32111 31.0536 5.56634 30.0755C3.84035 29.0974 2.47393 27.7598 1.4671 26.0626C0.489033 24.3653 0 22.4524 0 20.3236C0 18.1949 0.489033 16.2819 1.4671 14.5847C2.47393 12.8875 3.84035 11.5498 5.56634 10.5717C7.32111 9.59367 9.29162 9.10464 11.4779 9.10464C13.6641 9.10464 15.6203 9.59367 17.3463 10.5717C19.101 11.5498 20.4675 12.8875 21.4455 14.5847C22.4524 16.2819 22.9558 18.1949 22.9558 20.3236C22.9558 22.4524 22.4524 24.3653 21.4455 26.0626C20.4675 27.7598 19.101 29.0974 17.3463 30.0755C15.6203 31.0536 13.6641 31.5426 11.4779 31.5426ZM11.4779 26.3646C12.5423 26.3646 13.4915 26.1201 14.3258 25.6311C15.16 25.1133 15.7929 24.3941 16.2244 23.4736C16.6846 22.553 16.9148 21.5031 16.9148 20.3236C16.9148 19.1154 16.6846 18.0654 16.2244 17.1737C15.7929 16.2531 15.16 15.534 14.3258 15.0162C13.4915 14.4984 12.5423 14.2395 11.4779 14.2395C10.4135 14.2395 9.46422 14.4984 8.62999 15.0162C7.82452 15.534 7.19166 16.2531 6.73139 17.1737C6.27113 18.0654 6.04099 19.1154 6.04099 20.3236C6.04099 21.5031 6.27113 22.553 6.73139 23.4736C7.19166 24.3941 7.82452 25.1133 8.62999 25.6311C9.46422 26.1201 10.4135 26.3646 11.4779 26.3646Z" fill="#394DFF"/>
<path d="M33.9654 31.5426C31.2901 31.5426 29.1182 30.8522 27.4498 29.4714C25.8101 28.0618 24.9327 26.192 24.8176 23.8619H29.9956C30.1107 24.84 30.5134 25.6167 31.2038 26.192C31.923 26.7386 32.8435 27.0119 33.9654 27.0119C34.8859 27.0119 35.6339 26.8105 36.2092 26.4078C36.8133 26.005 37.1154 25.5016 37.1154 24.8975C37.1154 24.3222 36.9284 23.8763 36.5544 23.5599C36.1804 23.2434 35.7346 23.0133 35.2168 22.8695C34.699 22.6969 33.9223 22.5243 32.8867 22.3517C31.3333 22.0928 30.0532 21.7907 29.0463 21.4455C28.0683 21.1003 27.2196 20.4818 26.5005 19.5901C25.7813 18.6695 25.4217 17.3607 25.4217 15.6634C25.4217 14.3977 25.7525 13.2758 26.4142 12.2977C27.1046 11.2909 28.0395 10.5142 29.2189 9.96764C30.3983 9.39231 31.7216 9.10464 33.1887 9.10464C35.8065 9.10464 37.9208 9.75189 39.5318 11.0464C41.1715 12.3409 42.0488 14.0525 42.1639 16.1812H36.9428C36.8277 15.3182 36.425 14.6278 35.7346 14.11C35.0442 13.5922 34.2531 13.3333 33.3613 13.3333C32.4983 13.3333 31.8079 13.5203 31.2901 13.8943C30.7723 14.2682 30.5134 14.786 30.5134 15.4477C30.5134 15.9942 30.686 16.4257 31.0312 16.7422C31.4052 17.0298 31.8654 17.2456 32.412 17.3894C32.9586 17.5333 33.7353 17.6627 34.7421 17.7778C36.3243 18.0079 37.6188 18.2956 38.6256 18.6408C39.6612 18.9572 40.553 19.5901 41.3009 20.5394C42.0488 21.4887 42.4228 22.8695 42.4228 24.6818C42.4228 26.753 41.6461 28.4214 40.0927 29.6872C38.5393 30.9241 36.4969 31.5426 33.9654 31.5426Z" fill="#394DFF"/>
<path d="M45.7888 31.1974V9.44984H51.8298V31.1974H45.7888ZM45.6162 0H52.0024V6.34304H45.6162V0Z" fill="#394DFF"/>
<path d="M65.7322 31.5426C63.6035 31.5426 61.7624 31.0823 60.209 30.1618C58.6844 29.2125 57.5049 27.9036 56.6707 26.2352C55.8652 24.5379 55.4625 22.5674 55.4625 20.3236C55.4625 18.0798 55.8652 16.1093 56.6707 14.4121C57.5049 12.7149 58.6844 11.406 60.209 10.4854C61.7336 9.56491 63.5459 9.10464 65.6459 9.10464C66.9404 9.10464 68.1054 9.33477 69.141 9.79504C70.2054 10.2265 71.0396 10.8306 71.6437 11.6073V9.44984H77.6847V27.4434H71.6869V28.9968C71.1403 29.7735 70.3205 30.3919 69.2273 30.8522C68.163 31.3125 66.9979 31.5426 65.7322 31.5426ZM68.5369 35.2967C69.4575 35.2967 70.2054 34.9658 70.7807 34.3042C71.3848 33.6426 71.6869 32.8227 71.6869 31.8447V26.5372H77.6847V32.4919C77.6847 33.9878 77.3395 35.2967 76.6491 36.4186C75.9875 37.5692 75.0238 38.4466 73.7581 39.0507C72.5211 39.6836 71.0972 40 69.4862 40H58.5262V35.2967H68.5369ZM66.6815 26.3646C68.3212 26.3646 69.6157 25.8181 70.565 24.7249C71.5431 23.6318 72.0321 22.1647 72.0321 20.3236C72.0321 18.4826 71.5431 17.0155 70.565 15.9223C69.6157 14.8004 68.3212 14.2395 66.6815 14.2395C65.0706 14.2395 63.7761 14.8004 62.798 15.9223C61.8487 17.0155 61.3741 18.4826 61.3741 20.3236C61.3741 22.1647 61.8487 23.6318 62.798 24.7249C63.7761 25.8181 65.0706 26.3646 66.6815 26.3646Z" fill="#394DFF"/>
<path d="M92.7633 31.5426C90.577 31.5426 88.6065 31.0536 86.8517 30.0755C85.1257 29.0974 83.7593 27.7598 82.7525 26.0626C81.7744 24.3653 81.2854 22.4524 81.2854 20.3236C81.2854 18.1949 81.7744 16.2819 82.7525 14.5847C83.7593 12.8875 85.1257 11.5498 86.8517 10.5717C88.6065 9.59367 90.577 9.10464 92.7633 9.10464C94.9495 9.10464 96.9057 9.59367 98.6317 10.5717C100.386 11.5498 101.753 12.8875 102.731 14.5847C103.738 16.2819 104.241 18.1949 104.241 20.3236C104.241 22.4524 103.738 24.3653 102.731 26.0626C101.753 27.7598 100.386 29.0974 98.6317 30.0755C96.9057 31.0536 94.9495 31.5426 92.7633 31.5426ZM92.7633 26.3646C93.8276 26.3646 94.7769 26.1201 95.6112 25.6311C96.4454 25.1133 97.0783 24.3941 97.5098 23.4736C97.97 22.553 98.2002 21.5031 98.2002 20.3236C98.2002 19.1154 97.97 18.0654 97.5098 17.1737C97.0783 16.2531 96.4454 15.534 95.6112 15.0162C94.7769 14.4984 93.8276 14.2395 92.7633 14.2395C91.6989 14.2395 90.7496 14.4984 89.9154 15.0162C89.1099 15.534 88.477 16.2531 88.0168 17.1737C87.5565 18.0654 87.3264 19.1154 87.3264 20.3236C87.3264 21.5031 87.5565 22.553 88.0168 23.4736C88.477 24.3941 89.1099 25.1133 89.9154 25.6311C90.7496 26.1201 91.6989 26.3646 92.7633 26.3646Z" fill="#394DFF"/>
</svg>
